<?xml version="1.0" standalone="no"?>
<!DOCTYPE svg PUBLIC "-//W3C//DTD SVG 20010904//EN"
 "http://www.w3.org/TR/2001/REC-SVG-20010904/DTD/svg10.dtd">
<svg version="1.0" xmlns="http://www.w3.org/2000/svg"
 width="320.000000pt" height="320.000000pt" viewBox="0 0 320.000000 320.000000"
 preserveAspectRatio="xMidYMid meet">
<metadata>
Created by potrace 1.14, written by Peter Selinger 2001-2017
</metadata>
<g transform="translate(0.000000,320.000000) scale(0.100000,-0.100000)"
fill="#000000" stroke="none">
<path d="M203 3182 c-100 -35 -171 -115 -193 -216 -8 -36 -10 -444 -8 -1396
l3 -1345 28 -57 c32 -64 80 -111 146 -142 l46 -21 1375 0 1375 0 57 28 c64 32
111 80 142 146 l21 46 0 1375 0 1375 -21 46 c-31 66 -78 114 -142 146 l-57 28
-1360 2 c-1285 2 -1363 2 -1412 -15z m2220 -1102 c153 -259 277 -477 275 -484
-2 -7 -122 -223 -268 -479 l-265 -467 -555 0 -555 0 -278 470 c-153 259 -277
476 -275 484 2 7 122 223 268 479 l265 467 555 0 555 0 278 -470z"/>
<path d="M1260 2363 c0 -5 22 -44 48 -88 l48 -80 289 -5 289 -5 146 -245 146
-245 103 -3 c96 -3 103 -1 97 15 -4 10 -93 163 -198 341 l-191 322 -388 0
c-214 0 -389 -3 -389 -7z"/>
<path d="M1072 2238 c-11 -18 -97 -169 -192 -336 l-172 -303 158 -267 c87
-147 175 -297 197 -334 21 -38 42 -68 46 -68 4 0 17 19 29 43 11 23 33 63 47
88 l26 45 -146 247 -145 246 140 247 140 246 -51 89 c-28 49 -52 89 -54 89 -2
0 -12 -15 -23 -32z"/>
<path d="M1276 1850 c-47 -82 -86 -152 -86 -155 0 -3 80 -5 178 -5 l177 0 52
93 c29 50 69 120 89 155 l35 62 -180 0 -179 0 -86 -150z"/>
<path d="M1795 1756 l-87 -157 77 -132 c98 -166 99 -167 106 -167 7 0 169 287
169 300 0 6 -40 79 -89 162 l-88 150 -88 -156z"/>
<path d="M1190 1506 c0 -2 40 -71 89 -153 l88 -148 182 -3 181 -2 -46 77 c-26
43 -67 113 -92 156 l-45 77 -178 0 c-99 0 -179 -2 -179 -4z"/>
<path d="M2223 1498 c-6 -7 -61 -103 -123 -213 -61 -110 -123 -217 -136 -237
l-24 -38 -284 0 -284 0 -51 -87 -50 -88 382 -3 c210 -1 387 0 393 2 7 3 92
145 190 318 97 172 184 323 192 336 l14 22 -105 0 c-72 0 -108 -4 -114 -12z"/>
</g>
</svg>
